<svg width="593" height="650" viewBox="0 0 593 650" fill="none" xmlns="http://www.w3.org/2000/svg">
<g opacity="0.2">
<path d="M585.927 360.191C567.748 446.475 521.85 524.293 471.632 576.172C420.515 628.41 364.718 654.71 305.501 648.045C246.283 641.38 190.666 604.813 139.369 555.456C89.1513 505.739 43.2535 443.233 25.0744 374.602C6.89534 305.611 23.8145 241.483 75.112 189.244C125.329 137.366 209.925 97.3763 305.501 86.5682C401.076 75.9403 485.672 98.6372 535.889 148.354C587.187 197.711 604.106 273.907 585.927 360.191V360.191Z" fill="#E2E2DA" fill-opacity="0.86"/>
</g>
<g opacity="0.2">
<path d="M57.4687 105.595L57.4712 105.592C107.593 53.8127 192.073 13.863 287.556 3.06517C383.038 -7.55241 467.462 15.1337 517.537 64.7094L517.542 64.7144C568.68 113.917 585.593 189.917 567.437 276.088C549.279 362.272 503.432 440.006 453.275 491.822C402.224 543.993 346.57 570.19 287.556 563.548C228.503 556.902 172.985 520.426 121.717 471.098C71.5331 421.413 25.7046 358.983 7.55777 290.474C-10.5756 221.656 6.29337 157.709 57.4687 105.595Z" stroke="#212113" stroke-opacity="0.36"/>
</g>
</svg>
